# xmcd CD database file
#
# Track frame offsets:
#	150
#	24203
#	43983
#
# Disc length: 904 seconds
#
# Revision: 0
# Processed by: cddbd v1.5.1PL2 Copyright (c) Steve Scherf et al.
# Submitted via: CDex 1.51
#
DISCID=1c038603
DTITLE=オオゼキタク - Destination
DYEAR=2006
DGENRE=JPop
TTITLE0=Destination
TTITLE1=早春列車
TTITLE2=星のドライブ
EXTD=YEAR: 2006
EXTT0=
EXTT1=
EXTT2=
PLAYORDER=
